# Blender 3.5.1
# www.blender.org
mtllib pigear.mtl
o Cube.010
v -0.049804 -0.095148 0.031774
v -0.083562 0.135046 0.014272
v -0.046107 -0.100400 -0.018359
v -0.080271 0.111118 -0.080550
v 0.056484 -0.088533 0.038918
v 0.058155 0.143866 0.023797
v 0.060180 -0.093785 -0.011214
v 0.081286 0.121173 -0.069691
v -0.080315 0.233249 -0.002130
v -0.084301 0.188447 -0.091183
v 0.057416 0.197267 -0.081657
v 0.025972 0.239863 0.005014
v -0.014957 0.003803 -0.205936
v 0.091331 0.010418 -0.198792
v -0.024922 0.033801 -0.207979
v 0.081366 0.040416 -0.200835
v -0.058464 -0.119199 0.008178
v -0.070822 0.004462 0.026902
v -0.108616 0.128158 -0.023897
v -0.066244 -0.004136 -0.039976
v 0.008578 -0.118369 -0.018027
v 0.006309 0.086208 -0.089164
v 0.071530 0.004438 -0.030715
v 0.071114 -0.111135 0.016887
v 0.089846 0.140510 -0.010557
v 0.064826 0.012904 0.036020
v 0.004072 -0.111966 0.043092
v -0.013628 0.140769 0.031567
v -0.093059 0.228417 -0.033177
v -0.015933 0.200357 -0.086930
v 0.042589 0.236859 -0.024060
v -0.028669 0.240418 0.006711
v -0.089876 0.209541 0.005730
v -0.105969 0.162936 -0.090829
v 0.045772 0.217983 0.014848
v 0.092493 0.175288 -0.077489
v 0.042920 -0.010169 -0.211683
v 0.030771 0.026402 -0.214174
v -0.027944 0.004084 -0.217284
v 0.101635 0.012149 -0.208574
v 0.091048 0.070306 -0.149380
v 0.077181 0.112307 -0.152609
v -0.058466 0.103865 -0.161727
v -0.046725 0.061732 -0.158641
v -0.093967 -0.002717 -0.007157
v 0.004230 -0.006069 -0.047808
v 0.093224 0.008932 0.005425
v -0.003773 0.007903 0.043714
v 0.008711 -0.158610 0.017260
v -0.115647 0.200206 -0.032117
v -0.027666 0.239894 -0.028567
v -0.023047 0.215347 0.022297
v 0.109668 0.092781 -0.150326
v 0.078597 0.212295 -0.019061
v 0.044487 -0.021250 -0.232956
v -0.077523 0.081131 -0.162908
v 0.007325 0.113905 -0.158599
v 0.025210 0.054612 -0.155455
vn -0.8233 -0.1645 0.5433
vn -0.8294 -0.0242 0.5582
vn -0.8472 -0.2121 -0.4871
vn -0.7481 -0.2986 -0.5926
vn -0.0973 -0.2489 -0.9636
vn -0.1591 -0.3704 -0.9151
vn 0.3374 -0.3543 -0.8721
vn 0.2562 -0.2284 -0.9392
vn 0.8572 -0.1988 -0.4751
vn 0.9556 -0.0869 -0.2817
vn 0.7360 0.1001 0.6696
vn 0.7571 -0.0619 0.6503
vn 0.0953 0.0100 0.9954
vn 0.1034 0.0979 0.9898
vn -0.2454 0.0699 0.9669
vn -0.2277 -0.0111 0.9737
vn -0.2626 -0.6714 -0.6931
vn 0.4335 -0.6280 -0.6463
vn 0.3255 -0.4746 0.8178
vn -0.3705 -0.5180 0.7710
vn -0.9438 -0.2764 -0.1809
vn -0.8301 -0.0118 0.5575
vn -0.7782 0.5376 0.3245
vn -0.6857 0.5524 -0.4739
vn 0.0730 0.8315 -0.5507
vn -0.1041 0.8126 -0.5735
vn -0.1512 0.9871 -0.0530
vn 0.0297 0.9985 -0.0466
vn -0.2465 0.0893 0.9650
vn 0.1012 0.1356 0.9856
vn 0.0557 0.4985 0.8651
vn -0.2341 0.4365 0.8687
vn 0.4508 0.6366 -0.6256
vn 0.8659 -0.2907 0.4071
vn 0.6334 -0.4923 0.5970
vn 0.3925 0.5198 -0.7588
vn 0.7255 0.1964 0.6596
vn 0.9991 0.0059 0.0425
vn 0.5425 0.7566 -0.3652
vn 0.5516 0.7673 0.3271
vn 0.3108 -0.8708 0.3810
vn -0.2112 -0.9035 0.3730
vn -0.0760 0.3310 -0.9406
vn 0.1494 0.3850 -0.9107
vn -0.7878 -0.5867 0.1873
vn -0.5203 0.4516 -0.7248
vn -0.4140 0.3428 -0.8432
vn -0.4975 -0.6929 0.5218
vn -0.0601 0.6279 -0.7759
vn 0.0807 0.6494 -0.7561
vn 0.0761 0.5533 -0.8295
vn -0.0329 0.5340 -0.8448
vn 0.2071 -0.8338 0.5117
vn -0.1638 -0.8846 0.4367
vn -0.0932 -0.6637 0.7422
vn 0.0755 -0.6383 0.7661
vt 0.375000 0.000000
vt 0.375000 1.000000
vt 0.125000 0.750000
vt 0.625000 0.000000
vt 0.625000 1.000000
vt 0.375000 0.250000
vt 0.125000 0.500000
vt 0.595000 0.250000
vt 0.375000 0.750000
vt 0.583333 0.750000
vt 0.375000 0.500000
vt 0.595000 0.500000
vt 0.625000 0.000000
vt 0.875000 0.750000
vt 0.625000 1.000000
vt 0.625000 0.250000
vt 0.875000 0.500000
vt 0.666667 0.541667
vt 0.625000 0.750000
vt 0.625000 0.312500
vt 0.625000 0.437500
vt 0.625000 0.250000
vt 0.875000 0.500000
vt 0.625000 0.500000
vt 0.375000 0.125000
vt 0.125000 0.625000
vt 0.500000 0.000000
vt 0.500000 1.000000
vt 0.588056 0.124132
vt 0.496042 0.250000
vt 0.375000 0.375000
vt 0.250000 0.500000
vt 0.585833 0.375000
vt 0.496042 0.500000
vt 0.375000 0.625000
vt 0.584583 0.625868
vt 0.494792 0.750000
vt 0.375000 0.875000
vt 0.250000 0.750000
vt 0.586806 0.875000
vt 0.625000 0.125000
vt 0.875000 0.625000
vt 0.755208 0.538194
vt 0.663194 0.630208
vt 0.750000 0.750000
vt 0.625000 0.875000
vt 0.625000 0.000000
vt 0.625000 1.000000
vt 0.621910 0.216146
vt 0.620660 0.750000
vt 0.627118 0.537326
vt 0.625000 0.375000
vt 0.625000 0.375000
vt 0.750000 0.500000
vt 0.625000 0.291763
vt 0.625868 0.458237
vt 0.621910 0.459105
vt 0.663194 0.504340
vt 0.625000 0.250000
vt 0.875000 0.500000
vt 0.621910 0.290895
vt 0.495972 0.125000
vt 0.495417 0.375000
vt 0.495104 0.625000
vt 0.495660 0.875000
vt 0.250000 0.625000
vt 0.620972 0.121528
vt 0.754340 0.629340
vt 0.620660 0.875000
vt 0.628785 0.495853
vt 0.624445 0.629340
vt 0.625000 0.375000
vt 0.624444 0.255015
vt 0.754340 0.504340
vt 0.620417 0.375000
s 0
f 1/1/1 18/27/1 45/62/1 17/25/1
f 18/27/2 2/4/2 19/29/2 45/62/2
f 45/62/3 19/29/3 4/8/3 20/30/3
f 17/25/4 45/62/4 20/30/4 3/6/4
f 3/6/5 20/30/5 46/63/5 21/31/5
f 20/30/6 4/8/6 22/33/6 46/63/6
f 46/63/7 22/33/7 8/12/7 23/34/7
f 21/31/8 46/63/8 23/34/8 7/11/8
f 7/11/9 23/34/9 47/64/9 24/35/9
f 23/34/10 8/12/10 25/36/10 47/64/10
f 47/64/11 25/36/11 6/10/11 26/37/11
f 24/35/12 47/64/12 26/37/12 5/9/12
f 5/9/13 26/37/13 48/65/13 27/38/13
f 26/37/14 6/10/14 28/40/14 48/65/14
f 48/65/15 28/40/15 2/5/15 18/28/15
f 27/38/16 48/65/16 18/28/16 1/2/16
f 3/7/17 21/32/17 49/66/17 17/26/17
f 21/32/18 7/11/18 24/35/18 49/66/18
f 49/66/19 24/35/19 5/9/19 27/39/19
f 17/26/20 49/66/20 27/39/20 1/3/20
f 4/8/21 19/29/21 50/67/21 34/49/21
f 19/29/22 2/4/22 33/47/22 50/67/22
f 50/67/23 33/47/23 9/13/23 29/41/23
f 34/49/24 50/67/24 29/41/24 10/16/24
f 11/18/25 30/43/25 51/68/25 31/44/25
f 30/43/26 10/17/26 29/42/26 51/68/26
f 51/68/27 29/42/27 9/14/27 32/45/27
f 31/44/28 51/68/28 32/45/28 12/19/28
f 2/5/29 28/40/29 52/69/29 33/48/29
f 28/40/30 6/10/30 35/50/30 52/69/30
f 52/69/31 35/50/31 12/19/31 32/46/31
f 33/48/32 52/69/32 32/46/32 9/15/32
f 11/18/33 36/51/33 53/70/33 42/58/33
f 36/51/34 8/12/34 41/57/34 53/70/34
f 53/70/35 41/57/35 14/21/35 40/56/35
f 42/58/36 53/70/36 40/56/36 16/24/36
f 6/10/37 25/36/37 54/71/37 35/50/37
f 25/36/38 8/12/38 36/51/38 54/71/38
f 54/71/39 36/51/39 11/18/39 31/44/39
f 35/50/40 54/71/40 31/44/40 12/19/40
f 14/21/41 37/52/41 55/72/41 40/56/41
f 37/52/42 13/20/42 39/55/42 55/72/42
f 55/72/43 39/55/43 15/22/43 38/53/43
f 40/56/44 55/72/44 38/53/44 16/24/44
f 4/8/45 34/49/45 56/73/45 44/61/45
f 34/49/46 10/16/46 43/59/46 56/73/46
f 56/73/47 43/59/47 15/22/47 39/55/47
f 44/61/48 56/73/48 39/55/48 13/20/48
f 10/17/49 30/43/49 57/74/49 43/60/49
f 30/43/50 11/18/50 42/58/50 57/74/50
f 57/74/51 42/58/51 16/24/51 38/54/51
f 43/60/52 57/74/52 38/54/52 15/23/52
f 8/12/53 22/33/53 58/75/53 41/57/53
f 22/33/54 4/8/54 44/61/54 58/75/54
f 58/75/55 44/61/55 13/20/55 37/52/55
f 41/57/56 58/75/56 37/52/56 14/21/56
