# Blender 3.5.1
# www.blender.org
mtllib pigleg.mtl
o Cube.003
v 0.087776 -0.164366 0.280669
v 0.087776 0.320301 0.000847
v 0.087776 -0.291063 0.061224
v 0.087776 0.193604 -0.218599
v -0.087776 -0.164366 0.280669
v -0.087776 0.320301 0.000847
v -0.087776 -0.291063 0.061224
v -0.087776 0.193604 -0.218599
v 0.117035 0.013430 0.194274
v 0.117035 -0.127345 -0.049554
v -0.117035 -0.127345 -0.049554
v -0.117035 0.013430 0.194274
v 0.117035 -0.190395 0.149400
v 0.117035 0.297616 -0.132353
v -0.117035 -0.190395 0.149400
v -0.117035 0.297616 -0.132353
v -0.175552 -0.043970 0.064862
v 0.175552 -0.043970 0.064862
v 0.112023 -0.170836 0.229468
v 0.112023 0.195213 0.086537
v 0.112023 0.251091 -0.196852
v 0.112023 -0.251633 0.024988
v -0.000000 -0.310820 0.061944
v -0.000000 0.215709 -0.242048
v -0.112023 -0.251633 0.024988
v -0.112023 -0.249957 0.092428
v -0.112023 0.330211 -0.059811
v -0.112023 -0.113270 0.264640
v -0.000000 -0.174868 0.297419
v 0.000000 0.351661 -0.006573
v 0.112023 -0.113270 0.264640
v 0.112023 0.056850 -0.153115
v -0.112023 0.056850 -0.153115
v -0.112023 0.195213 0.086537
v -0.000000 0.020741 0.214436
v -0.168237 -0.008368 0.137774
v 0.000000 -0.141150 -0.065967
v 0.168237 -0.089313 -0.002427
v 0.112023 -0.249957 0.092428
v 0.112023 0.330211 -0.059811
v -0.112023 -0.170836 0.229468
v -0.112023 0.251091 -0.196852
v -0.168237 -0.089313 -0.002427
v 0.168237 -0.008368 0.137774
v 0.168237 -0.147681 0.124739
v -0.168237 -0.147681 0.124739
v 0.000000 0.358612 -0.167569
v -0.000000 -0.202601 0.156447
v -0.168237 0.132926 -0.037269
v 0.168237 0.132926 -0.037269
v 0.161194 0.090755 -0.105863
v 0.000000 0.048945 -0.171955
v -0.161194 0.171244 0.033549
v -0.000000 0.207577 0.102803
v -0.000000 -0.185964 0.239256
v 0.000000 0.389216 -0.092824
v -0.000000 -0.113078 0.287934
v -0.161194 -0.121134 0.202353
v -0.000000 -0.271710 0.013175
v 0.161194 -0.201624 0.062942
v 0.161194 -0.121134 0.202353
v -0.161194 -0.201624 0.062942
v 0.000000 0.309183 -0.231445
v -0.000000 -0.265997 0.100635
v -0.161194 0.090755 -0.105863
v 0.161194 0.171244 0.033549
vn 0.9953 -0.0150 -0.0955
vn 0.9620 0.1789 -0.2064
vn 0.7657 -0.1413 -0.6275
vn 0.7590 -0.3025 -0.5766
vn 0.1777 -0.4789 -0.8597
vn 0.1638 -0.3914 -0.9055
vn -0.1638 -0.3914 -0.9055
vn -0.1777 -0.4789 -0.8597
vn -0.9953 0.0752 0.0607
vn -0.9620 0.2682 -0.0518
vn -0.7657 0.4728 0.4361
vn -0.7590 0.3481 0.5503
vn -0.1777 0.5050 0.8446
vn -0.1638 0.5885 0.7917
vn 0.1638 0.5885 0.7917
vn 0.1777 0.5050 0.8446
vn 0.1315 -0.9669 0.2189
vn -0.1315 -0.9668 0.2189
vn -0.1496 -0.9705 0.1891
vn 0.1496 -0.9705 0.1891
vn -0.5129 0.7951 -0.3237
vn 0.5129 0.7951 -0.3237
vn 0.3299 0.8810 0.3391
vn -0.3299 0.8810 0.3391
vn -0.1845 0.1788 0.9664
vn -0.1792 0.4729 0.8627
vn 0.1792 0.4729 0.8627
vn 0.1845 0.1788 0.9664
vn -0.7220 -0.6472 0.2445
vn -0.9951 -0.0092 0.0987
vn -0.7659 0.2859 0.5758
vn -0.7727 -0.3310 0.5417
vn 0.1845 -0.7475 -0.6381
vn 0.1792 -0.5106 -0.8409
vn -0.1792 -0.5106 -0.8409
vn -0.1845 -0.7475 -0.6381
vn 0.7220 -0.5353 0.4383
vn 0.9951 -0.0901 -0.0414
vn 0.7659 -0.3557 -0.5355
vn 0.7727 -0.6346 0.0158
vn 0.7727 -0.3310 0.5417
vn 0.7659 0.2859 0.5758
vn 0.9951 -0.0092 0.0987
vn 0.7220 -0.6472 0.2445
vn -0.7727 -0.6346 0.0158
vn -0.7659 -0.3557 -0.5355
vn -0.9951 -0.0901 -0.0414
vn -0.7220 -0.5353 0.4383
vn -0.3299 0.1469 -0.9325
vn 0.3299 0.1469 -0.9325
vn 0.5129 0.6779 -0.5267
vn -0.5129 0.6779 -0.5267
vn 0.1496 -0.6490 0.7460
vn -0.1496 -0.6490 0.7460
vn -0.1315 -0.6730 0.7279
vn 0.1315 -0.6730 0.7279
vn -0.7590 -0.3025 -0.5766
vn -0.7657 -0.1413 -0.6275
vn -0.9620 0.1789 -0.2064
vn -0.9953 -0.0150 -0.0955
vn 0.7590 0.3481 0.5503
vn 0.7657 0.4728 0.4361
vn 0.9620 0.2682 -0.0518
vn 0.9953 0.0752 0.0607
vt 0.125000 0.750000
vt 0.375000 1.000000
vt 0.375000 0.000000
vt 0.625000 1.000000
vt 0.875000 0.750000
vt 0.625000 0.000000
vt 0.375000 0.250000
vt 0.125000 0.500000
vt 0.625000 0.250000
vt 0.875000 0.500000
vt 0.375000 0.750000
vt 0.625000 0.750000
vt 0.375000 0.500000
vt 0.625000 0.500000
vt 0.448075 1.000000
vt 0.448075 0.000000
vt 0.465383 0.270833
vt 0.465383 0.479167
vt 0.465383 0.770833
vt 0.375000 0.125000
vt 0.125000 0.625000
vt 0.875000 0.625000
vt 0.625000 0.125000
vt 0.345513 0.625000
vt 0.637179 0.625000
vt 0.465383 0.625000
vt 0.465383 0.125000
vt 0.125000 0.687500
vt 0.375000 0.062500
vt 0.536538 1.000000
vt 0.536538 0.000000
vt 0.625000 0.187500
vt 0.875000 0.562500
vt 0.413701 0.269097
vt 0.375000 0.375000
vt 0.250000 0.500000
vt 0.625000 0.375000
vt 0.750000 0.500000
vt 0.413087 0.480903
vt 0.347970 0.562066
vt 0.636164 0.687934
vt 0.413087 0.769097
vt 0.250000 0.750000
vt 0.375000 0.875000
vt 0.625000 0.875000
vt 0.750000 0.750000
vt 0.411538 1.000000
vt 0.411538 0.000000
vt 0.538701 0.269097
vt 0.538955 0.480903
vt 0.538955 0.769097
vt 0.463941 0.877604
vt 0.465383 0.690104
vt 0.465383 0.375000
vt 0.465383 0.190104
vt 0.375000 0.187500
vt 0.125000 0.562500
vt 0.875000 0.687500
vt 0.625000 0.062500
vt 0.347970 0.687934
vt 0.636164 0.562066
vt 0.465383 0.559896
vt 0.463941 0.062500
vt 0.413701 0.125000
vt 0.410015 0.625000
vt 0.751522 0.625000
vt 0.246314 0.625000
vt 0.540224 0.625000
vt 0.538701 0.125000
vt 0.538701 0.189670
vt 0.538701 0.375000
vt 0.539970 0.689670
vt 0.538341 0.877170
vt 0.246928 0.687500
vt 0.751269 0.687500
vt 0.413341 0.877170
vt 0.410630 0.689670
vt 0.413701 0.375000
vt 0.413701 0.189670
vt 0.413341 0.062500
vt 0.410630 0.560330
vt 0.751269 0.562500
vt 0.246928 0.562500
vt 0.539970 0.560330
vt 0.538341 0.062500
s 0
f 18/27/1 38/55/1 51/70/1 50/69/1
f 50/69/2 51/70/2 21/32/2 14/23/2
f 51/70/3 32/49/3 4/9/3 21/32/3
f 38/55/4 10/17/4 32/49/4 51/70/4
f 10/17/5 37/54/5 52/71/5 32/49/5
f 32/49/6 52/71/6 24/37/6 4/9/6
f 52/71/7 33/50/7 8/14/7 24/37/7
f 37/54/8 11/18/8 33/50/8 52/71/8
f 17/26/9 36/53/9 53/72/9 49/68/9
f 49/68/10 53/72/10 27/41/10 16/25/10
f 53/72/11 34/51/11 6/12/11 27/41/11
f 36/53/12 12/19/12 34/51/12 53/72/12
f 12/19/13 35/52/13 54/73/13 34/51/13
f 34/51/14 54/73/14 30/45/14 6/12/14
f 54/73/15 20/30/15 2/4/15 30/45/15
f 35/52/16 9/15/16 20/30/16 54/73/16
f 13/21/17 19/28/17 55/74/17 48/67/17
f 48/67/18 55/74/18 41/60/18 15/24/18
f 55/74/19 29/43/19 5/11/19 41/60/19
f 19/28/20 1/1/20 29/43/20 55/74/20
f 16/25/21 27/41/21 56/75/21 47/66/21
f 47/66/22 56/75/22 40/58/22 14/22/22
f 56/75/23 30/46/23 2/5/23 40/58/23
f 27/41/24 6/12/24 30/46/24 56/75/24
f 5/11/25 29/44/25 57/76/25 28/42/25
f 28/42/26 57/76/26 35/52/26 12/19/26
f 57/76/27 31/47/27 9/15/27 35/52/27
f 29/44/28 1/2/28 31/47/28 57/76/28
f 15/24/29 41/60/29 58/77/29 46/65/29
f 46/65/30 58/77/30 36/53/30 17/26/30
f 58/77/31 28/42/31 12/19/31 36/53/31
f 41/60/32 5/11/32 28/42/32 58/77/32
f 3/7/33 23/35/33 59/78/33 22/34/33
f 22/34/34 59/78/34 37/54/34 10/17/34
f 59/78/35 25/39/35 11/18/35 37/54/35
f 23/35/36 7/13/36 25/39/36 59/78/36
f 13/20/37 39/56/37 60/79/37 45/64/37
f 45/64/38 60/79/38 38/55/38 18/27/38
f 60/79/39 22/34/39 10/17/39 38/55/39
f 39/56/40 3/7/40 22/34/40 60/79/40
f 1/3/41 19/29/41 61/80/41 31/48/41
f 31/48/42 61/80/42 44/63/42 9/16/42
f 61/80/43 45/64/43 18/27/43 44/63/43
f 19/29/44 13/20/44 45/64/44 61/80/44
f 7/13/45 26/40/45 62/81/45 25/39/45
f 25/39/46 62/81/46 43/62/46 11/18/46
f 62/81/47 46/65/47 17/26/47 43/62/47
f 26/40/48 15/24/48 46/65/48 62/81/48
f 8/14/49 42/61/49 63/82/49 24/38/49
f 24/38/50 63/82/50 21/33/50 4/10/50
f 63/82/51 47/66/51 14/22/51 21/33/51
f 42/61/52 16/25/52 47/66/52 63/82/52
f 3/8/53 39/57/53 64/83/53 23/36/53
f 23/36/54 64/83/54 26/40/54 7/13/54
f 64/83/55 48/67/55 15/24/55 26/40/55
f 39/57/56 13/21/56 48/67/56 64/83/56
f 11/18/57 43/62/57 65/84/57 33/50/57
f 33/50/58 65/84/58 42/61/58 8/14/58
f 65/84/59 49/68/59 16/25/59 42/61/59
f 43/62/60 17/26/60 49/68/60 65/84/60
f 9/16/61 44/63/61 66/85/61 20/31/61
f 20/31/62 66/85/62 40/59/62 2/6/62
f 66/85/63 50/69/63 14/23/63 40/59/63
f 44/63/64 18/27/64 50/69/64 66/85/64
