# Blender 3.5.1
# www.blender.org
mtllib pignose4.mtl
o Cube
v -0.136147 -0.102000 0.135949
v -0.136147 0.102000 0.135949
v -0.136147 -0.102000 -0.135949
v -0.136147 0.102000 -0.135949
v 0.136147 -0.102000 0.135949
v 0.136147 0.102000 0.135949
v 0.136147 -0.102000 -0.135949
v 0.136147 0.102000 -0.135949
v -0.156007 -0.116878 -0.080659
v -0.165982 -0.124351 -0.000000
v -0.156007 -0.116878 0.080659
v -0.156007 -0.060516 0.155779
v -0.165982 -0.000000 0.165741
v -0.156007 0.060516 0.155779
v -0.156007 0.116878 0.080659
v -0.165982 0.124351 0.000000
v -0.156007 0.116878 -0.080659
v -0.156007 0.060516 -0.155779
v -0.165982 -0.000000 -0.165741
v -0.156007 -0.060516 -0.155779
v 0.080776 -0.116878 -0.155779
v 0.000000 -0.124351 -0.165741
v -0.080776 -0.116878 -0.155779
v -0.080776 0.116878 -0.155779
v -0.000000 0.124351 -0.165741
v 0.080776 0.116878 -0.155779
v 0.156007 0.060516 -0.155779
v 0.165982 -0.000000 -0.165741
v 0.156007 -0.060516 -0.155779
v 0.156007 -0.116878 0.080659
v 0.165982 -0.124351 0.000000
v 0.156007 -0.116878 -0.080659
v 0.156007 0.116878 -0.080659
v 0.165982 0.124351 0.000000
v 0.156007 0.116878 0.080659
v 0.156007 0.060516 0.155779
v 0.165982 -0.000000 0.165741
v 0.156007 -0.060516 0.155779
v -0.080776 -0.116878 0.155779
v -0.000000 -0.124351 0.165741
v 0.080776 -0.116878 0.155779
v 0.080776 0.116878 0.155779
v -0.000000 0.124351 0.165741
v -0.080776 0.116878 0.155779
v -0.198500 -0.064496 0.085963
v -0.212888 -0.000000 0.090580
v -0.198500 0.064496 0.085963
v -0.212888 -0.067960 -0.000000
v -0.228593 0.000000 0.000000
v -0.212888 0.067960 0.000000
v -0.198500 -0.064496 -0.085963
v -0.212888 0.000000 -0.090580
v -0.198500 0.064496 -0.085963
v -0.086088 -0.064496 -0.198211
v -0.090712 -0.000000 -0.212578
v -0.086088 0.064496 -0.198211
v 0.000000 -0.067960 -0.212578
v 0.000000 0.000000 -0.228260
v -0.000000 0.067960 -0.212578
v 0.086088 -0.064496 -0.198211
v 0.090712 0.000000 -0.212578
v 0.086088 0.064496 -0.198211
v 0.198500 -0.064496 -0.085963
v 0.212888 -0.000000 -0.090580
v 0.198500 0.064496 -0.085963
v 0.212888 -0.067960 0.000000
v 0.228593 0.000000 0.000000
v 0.212888 0.067960 -0.000000
v 0.198500 -0.064496 0.085963
v 0.212888 0.000000 0.090580
v 0.198500 0.064496 0.085963
v 0.086088 -0.064496 0.198211
v 0.090712 -0.000000 0.212578
v 0.086088 0.064496 0.198211
v -0.000000 -0.067960 0.212578
v -0.000000 0.000000 0.228260
v 0.000000 0.067960 0.212578
v -0.086088 -0.064496 0.198211
v -0.090712 0.000000 0.212578
v -0.086088 0.064496 0.198211
v -0.086088 -0.148713 -0.085963
v -0.000000 -0.159492 -0.090580
v 0.086088 -0.148713 -0.085963
v -0.090712 -0.159492 0.000000
v 0.000000 -0.171258 0.000000
v 0.090712 -0.159492 -0.000000
v -0.086088 -0.148713 0.085963
v 0.000000 -0.159492 0.090580
v 0.086088 -0.148713 0.085963
v 0.086088 0.148713 -0.085963
v 0.000000 0.159492 -0.090580
v -0.086088 0.148713 -0.085963
v 0.090712 0.159492 0.000000
v -0.000000 0.171258 0.000000
v -0.090712 0.159492 -0.000000
v 0.086088 0.148713 0.085963
v -0.000000 0.159492 0.090580
v -0.086088 0.148713 0.085963
vn -0.9600 -0.2240 0.1680
vn -0.9600 0.2240 0.1680
vn -0.9600 -0.2240 -0.1680
vn -0.9600 0.2240 -0.1680
vn -0.6934 -0.5764 0.4325
vn -0.8273 -0.2214 0.5162
vn -0.8273 0.2214 0.5162
vn -0.6934 0.5764 0.4325
vn -0.7598 0.6319 0.1526
vn -0.7598 0.6319 -0.1526
vn -0.6934 0.5764 -0.4325
vn -0.8273 0.2214 -0.5162
vn -0.8273 -0.2214 -0.5162
vn -0.6934 -0.5764 -0.4325
vn -0.7598 -0.6319 -0.1526
vn -0.7598 -0.6319 0.1526
vn -0.1676 -0.2237 -0.9602
vn -0.1676 0.2237 -0.9602
vn 0.1676 -0.2237 -0.9602
vn 0.1676 0.2237 -0.9602
vn -0.4316 -0.5761 -0.6941
vn -0.5152 -0.2213 -0.8280
vn -0.5152 0.2213 -0.8280
vn -0.4316 0.5761 -0.6941
vn -0.1522 0.6314 -0.7603
vn 0.1522 0.6314 -0.7603
vn 0.4316 0.5761 -0.6941
vn 0.5152 0.2213 -0.8280
vn 0.5152 -0.2213 -0.8280
vn 0.4316 -0.5761 -0.6941
vn 0.1522 -0.6314 -0.7603
vn -0.1522 -0.6314 -0.7603
vn 0.9600 -0.2240 -0.1680
vn 0.9600 0.2240 -0.1680
vn 0.9600 -0.2240 0.1680
vn 0.9600 0.2240 0.1680
vn 0.6934 -0.5764 -0.4325
vn 0.8273 -0.2214 -0.5162
vn 0.8273 0.2214 -0.5162
vn 0.6934 0.5764 -0.4325
vn 0.7598 0.6319 -0.1526
vn 0.7598 0.6319 0.1526
vn 0.6934 0.5764 0.4325
vn 0.8273 0.2214 0.5162
vn 0.8273 -0.2214 0.5162
vn 0.6934 -0.5764 0.4325
vn 0.7598 -0.6319 0.1526
vn 0.7598 -0.6319 -0.1526
vn 0.1676 -0.2237 0.9602
vn 0.1676 0.2237 0.9602
vn -0.1676 -0.2237 0.9602
vn -0.1676 0.2237 0.9602
vn 0.4316 -0.5761 0.6941
vn 0.5152 -0.2213 0.8280
vn 0.5152 0.2213 0.8280
vn 0.4316 0.5761 0.6941
vn 0.1522 0.6314 0.7603
vn -0.1522 0.6314 0.7603
vn -0.4316 0.5761 0.6941
vn -0.5152 0.2213 0.8280
vn -0.5152 -0.2213 0.8280
vn -0.4316 -0.5761 0.6941
vn -0.1522 -0.6314 0.7603
vn 0.1522 -0.6314 0.7603
vn -0.1288 -0.9833 -0.1289
vn 0.1288 -0.9833 -0.1289
vn -0.1288 -0.9833 0.1289
vn 0.1288 -0.9833 0.1289
vn -0.3894 -0.8345 -0.3899
vn -0.1348 -0.8976 -0.4196
vn 0.1348 -0.8976 -0.4196
vn 0.3894 -0.8345 -0.3899
vn 0.4191 -0.8978 -0.1351
vn 0.4191 -0.8978 0.1351
vn 0.3894 -0.8345 0.3899
vn 0.1348 -0.8976 0.4196
vn -0.1348 -0.8976 0.4196
vn -0.3894 -0.8345 0.3899
vn -0.4191 -0.8978 0.1351
vn -0.4191 -0.8978 -0.1351
vn 0.1288 0.9833 -0.1289
vn -0.1288 0.9833 -0.1289
vn 0.1288 0.9833 0.1289
vn -0.1288 0.9833 0.1289
vn 0.3894 0.8345 -0.3899
vn 0.1349 0.8976 -0.4196
vn -0.1348 0.8976 -0.4196
vn -0.3894 0.8345 -0.3899
vn -0.4191 0.8978 -0.1351
vn -0.4191 0.8978 0.1351
vn -0.3894 0.8345 0.3899
vn -0.1348 0.8976 0.4196
vn 0.1348 0.8976 0.4196
vn 0.3894 0.8345 0.3899
vn 0.4191 0.8978 0.1351
vn 0.4191 0.8978 -0.1351
vt 0.375000 0.000000
vt 0.375000 1.000000
vt 0.125000 0.750000
vt 0.625000 0.000000
vt 0.625000 1.000000
vt 0.875000 0.750000
vt 0.375000 0.250000
vt 0.125000 0.500000
vt 0.625000 0.250000
vt 0.875000 0.500000
vt 0.375000 0.750000
vt 0.625000 0.750000
vt 0.375000 0.500000
vt 0.625000 0.500000
vt 0.375000 0.187500
vt 0.125000 0.562500
vt 0.375000 0.125000
vt 0.125000 0.625000
vt 0.375000 0.062500
vt 0.125000 0.687500
vt 0.437500 0.000000
vt 0.437500 1.000000
vt 0.500000 0.000000
vt 0.500000 1.000000
vt 0.562500 0.000000
vt 0.562500 1.000000
vt 0.625000 0.062500
vt 0.875000 0.687500
vt 0.625000 0.125000
vt 0.875000 0.625000
vt 0.625000 0.187500
vt 0.875000 0.562500
vt 0.562500 0.250000
vt 0.500000 0.250000
vt 0.437500 0.250000
vt 0.375000 0.437500
vt 0.312500 0.500000
vt 0.375000 0.375000
vt 0.250000 0.500000
vt 0.375000 0.312500
vt 0.187500 0.500000
vt 0.625000 0.312500
vt 0.812500 0.500000
vt 0.625000 0.375000
vt 0.750000 0.500000
vt 0.625000 0.437500
vt 0.687500 0.500000
vt 0.562500 0.500000
vt 0.500000 0.500000
vt 0.437500 0.500000
vt 0.375000 0.687500
vt 0.375000 0.625000
vt 0.375000 0.562500
vt 0.625000 0.562500
vt 0.625000 0.625000
vt 0.625000 0.687500
vt 0.562500 0.750000
vt 0.500000 0.750000
vt 0.437500 0.750000
vt 0.375000 0.937500
vt 0.187500 0.750000
vt 0.375000 0.875000
vt 0.250000 0.750000
vt 0.375000 0.812500
vt 0.312500 0.750000
vt 0.625000 0.812500
vt 0.687500 0.750000
vt 0.625000 0.875000
vt 0.750000 0.750000
vt 0.625000 0.937500
vt 0.812500 0.750000
vt 0.437500 0.062500
vt 0.500000 0.062500
vt 0.562500 0.062500
vt 0.437500 0.125000
vt 0.500000 0.125000
vt 0.562500 0.125000
vt 0.437500 0.187500
vt 0.500000 0.187500
vt 0.562500 0.187500
vt 0.437500 0.312500
vt 0.500000 0.312500
vt 0.562500 0.312500
vt 0.437500 0.375000
vt 0.500000 0.375000
vt 0.562500 0.375000
vt 0.437500 0.437500
vt 0.500000 0.437500
vt 0.562500 0.437500
vt 0.437500 0.562500
vt 0.500000 0.562500
vt 0.562500 0.562500
vt 0.437500 0.625000
vt 0.500000 0.625000
vt 0.562500 0.625000
vt 0.437500 0.687500
vt 0.500000 0.687500
vt 0.562500 0.687500
vt 0.437500 0.812500
vt 0.500000 0.812500
vt 0.562500 0.812500
vt 0.437500 0.875000
vt 0.500000 0.875000
vt 0.562500 0.875000
vt 0.437500 0.937500
vt 0.500000 0.937500
vt 0.562500 0.937500
vt 0.187500 0.562500
vt 0.250000 0.562500
vt 0.312500 0.562500
vt 0.187500 0.625000
vt 0.250000 0.625000
vt 0.312500 0.625000
vt 0.187500 0.687500
vt 0.250000 0.687500
vt 0.312500 0.687500
vt 0.687500 0.562500
vt 0.750000 0.562500
vt 0.812500 0.562500
vt 0.687500 0.625000
vt 0.750000 0.625000
vt 0.812500 0.625000
vt 0.687500 0.687500
vt 0.750000 0.687500
vt 0.812500 0.687500
s 0
f 45/72/1 46/73/1 49/76/1 48/75/1
f 46/73/2 47/74/2 50/77/2 49/76/2
f 48/75/3 49/76/3 52/79/3 51/78/3
f 49/76/4 50/77/4 53/80/4 52/79/4
f 1/1/5 12/21/5 45/72/5 11/19/5
f 12/21/6 13/23/6 46/73/6 45/72/6
f 13/23/7 14/25/7 47/74/7 46/73/7
f 14/25/8 2/4/8 15/27/8 47/74/8
f 47/74/9 15/27/9 16/29/9 50/77/9
f 50/77/10 16/29/10 17/31/10 53/80/10
f 53/80/11 17/31/11 4/9/11 18/33/11
f 52/79/12 53/80/12 18/33/12 19/34/12
f 51/78/13 52/79/13 19/34/13 20/35/13
f 9/15/14 51/78/14 20/35/14 3/7/14
f 10/17/15 48/75/15 51/78/15 9/15/15
f 11/19/16 45/72/16 48/75/16 10/17/16
f 54/81/17 55/82/17 58/85/17 57/84/17
f 55/82/18 56/83/18 59/86/18 58/85/18
f 57/84/19 58/85/19 61/88/19 60/87/19
f 58/85/20 59/86/20 62/89/20 61/88/20
f 3/7/21 20/35/21 54/81/21 23/40/21
f 20/35/22 19/34/22 55/82/22 54/81/22
f 19/34/23 18/33/23 56/83/23 55/82/23
f 18/33/24 4/9/24 24/42/24 56/83/24
f 56/83/25 24/42/25 25/44/25 59/86/25
f 59/86/26 25/44/26 26/46/26 62/89/26
f 62/89/27 26/46/27 8/14/27 27/48/27
f 61/88/28 62/89/28 27/48/28 28/49/28
f 60/87/29 61/88/29 28/49/29 29/50/29
f 21/36/30 60/87/30 29/50/30 7/13/30
f 22/38/31 57/84/31 60/87/31 21/36/31
f 23/40/32 54/81/32 57/84/32 22/38/32
f 63/90/33 64/91/33 67/94/33 66/93/33
f 64/91/34 65/92/34 68/95/34 67/94/34
f 66/93/35 67/94/35 70/97/35 69/96/35
f 67/94/36 68/95/36 71/98/36 70/97/36
f 7/13/37 29/50/37 63/90/37 32/53/37
f 29/50/38 28/49/38 64/91/38 63/90/38
f 28/49/39 27/48/39 65/92/39 64/91/39
f 27/48/40 8/14/40 33/54/40 65/92/40
f 65/92/41 33/54/41 34/55/41 68/95/41
f 68/95/42 34/55/42 35/56/42 71/98/42
f 71/98/43 35/56/43 6/12/43 36/57/43
f 70/97/44 71/98/44 36/57/44 37/58/44
f 69/96/45 70/97/45 37/58/45 38/59/45
f 30/51/46 69/96/46 38/59/46 5/11/46
f 31/52/47 66/93/47 69/96/47 30/51/47
f 32/53/48 63/90/48 66/93/48 31/52/48
f 72/99/49 73/100/49 76/103/49 75/102/49
f 73/100/50 74/101/50 77/104/50 76/103/50
f 75/102/51 76/103/51 79/106/51 78/105/51
f 76/103/52 77/104/52 80/107/52 79/106/52
f 5/11/53 38/59/53 72/99/53 41/64/53
f 38/59/54 37/58/54 73/100/54 72/99/54
f 37/58/55 36/57/55 74/101/55 73/100/55
f 36/57/56 6/12/56 42/66/56 74/101/56
f 74/101/57 42/66/57 43/68/57 77/104/57
f 77/104/58 43/68/58 44/70/58 80/107/58
f 80/107/59 44/70/59 2/5/59 14/26/59
f 79/106/60 80/107/60 14/26/60 13/24/60
f 78/105/61 79/106/61 13/24/61 12/22/61
f 39/60/62 78/105/62 12/22/62 1/2/62
f 40/62/63 75/102/63 78/105/63 39/60/63
f 41/64/64 72/99/64 75/102/64 40/62/64
f 81/108/65 82/109/65 85/112/65 84/111/65
f 82/109/66 83/110/66 86/113/66 85/112/66
f 84/111/67 85/112/67 88/115/67 87/114/67
f 85/112/68 86/113/68 89/116/68 88/115/68
f 3/8/69 23/41/69 81/108/69 9/16/69
f 23/41/70 22/39/70 82/109/70 81/108/70
f 22/39/71 21/37/71 83/110/71 82/109/71
f 21/37/72 7/13/72 32/53/72 83/110/72
f 83/110/73 32/53/73 31/52/73 86/113/73
f 86/113/74 31/52/74 30/51/74 89/116/74
f 89/116/75 30/51/75 5/11/75 41/65/75
f 88/115/76 89/116/76 41/65/76 40/63/76
f 87/114/77 88/115/77 40/63/77 39/61/77
f 11/20/78 87/114/78 39/61/78 1/3/78
f 10/18/79 84/111/79 87/114/79 11/20/79
f 9/16/80 81/108/80 84/111/80 10/18/80
f 90/117/81 91/118/81 94/121/81 93/120/81
f 91/118/82 92/119/82 95/122/82 94/121/82
f 93/120/83 94/121/83 97/124/83 96/123/83
f 94/121/84 95/122/84 98/125/84 97/124/84
f 8/14/85 26/47/85 90/117/85 33/54/85
f 26/47/86 25/45/86 91/118/86 90/117/86
f 25/45/87 24/43/87 92/119/87 91/118/87
f 24/43/88 4/10/88 17/32/88 92/119/88
f 92/119/89 17/32/89 16/30/89 95/122/89
f 95/122/90 16/30/90 15/28/90 98/125/90
f 98/125/91 15/28/91 2/6/91 44/71/91
f 97/124/92 98/125/92 44/71/92 43/69/92
f 96/123/93 97/124/93 43/69/93 42/67/93
f 35/56/94 96/123/94 42/67/94 6/12/94
f 34/55/95 93/120/95 96/123/95 35/56/95
f 33/54/96 90/117/96 93/120/96 34/55/96
