# Blender 3.5.1
# www.blender.org
mtllib pigtail.mtl
o Cube
o Plane.001
v -0.278766 -0.217438 -0.413306
v -0.644343 -0.217438 -0.072199
v -0.617428 0.281003 -0.043353
v -0.251851 0.281003 -0.384460
v 0.401931 -0.324690 0.387371
v -0.077853 -0.199200 0.323657
v 0.005727 0.236978 0.553360
v 0.485511 0.111488 0.617074
v -1.750350 -1.181429 0.912200
v -2.175068 -0.927717 0.839774
v -1.920337 -0.497659 0.852509
v -1.495620 -0.751371 0.924935
v 0.204288 -0.259054 1.894256
v -0.244977 -0.103390 1.739566
v -0.056355 0.350655 1.648654
v 0.392910 0.194991 1.803344
v -2.910667 -0.879307 2.425294
v -3.064981 -0.723622 1.975906
v -2.691340 -0.391635 1.962614
v -2.537025 -0.547320 2.412002
v -2.257523 0.923537 2.964581
v -2.057237 1.358016 2.819276
v -1.802185 1.120533 2.460737
v -2.002471 0.686054 2.606042
v -1.923753 -0.820615 3.277549
v -1.769387 -0.345879 3.249309
v -1.653881 -0.412107 2.767363
v -1.808248 -0.886842 2.795603
v -0.315486 0.616237 3.424814
v -0.740529 0.605983 3.161692
v -0.542258 0.922306 2.829083
v -0.117215 0.932559 3.092205
v -2.369360 0.176265 3.969834
v -2.808465 -0.013217 3.823944
v -2.982771 0.449217 3.747968
v -2.543666 0.638699 3.893858
v -1.652448 0.448557 4.816134
v -2.035424 0.324515 5.112685
v -2.202472 0.795411 5.093921
v -1.819496 0.919453 4.797370
v 0.047197 -0.255257 -0.063958
v -0.318380 -0.255257 0.277148
v -0.291465 0.243184 0.305994
v 0.074112 0.243184 -0.035112
v -0.078333 -0.533094 0.537253
v -0.270604 -0.212039 0.205657
v -0.329677 0.127107 0.568273
v -0.137407 -0.193948 0.899869
v -0.486168 -0.692231 0.619651
v -0.678439 -0.371177 0.288054
v -0.737512 -0.032031 0.650671
v -0.545241 -0.353085 0.982267
v -0.894003 -0.851369 0.702049
v -1.086273 -0.530314 0.370452
v -1.145347 -0.191169 0.733069
v -0.953076 -0.512223 1.064665
v -1.301837 -1.010506 0.784447
v -1.494108 -0.689452 0.452850
v -1.553181 -0.350306 0.815467
v -1.360910 -0.671360 1.147063
v -1.341517 -0.987375 1.143263
v -1.612116 -0.636609 1.375081
v -1.565446 -0.337574 0.977086
v -1.294847 -0.688340 0.745268
v -0.959655 -0.810307 1.321083
v -1.230255 -0.459541 1.552901
v -1.183584 -0.160506 1.154906
v -0.912985 -0.511272 0.923088
v -0.577793 -0.633238 1.498904
v -0.848392 -0.282472 1.730721
v -0.801722 0.016563 1.332726
v -0.531123 -0.334203 1.100909
v -0.195931 -0.456169 1.676724
v -0.466530 -0.105403 1.908541
v -0.419860 0.193632 1.510546
v -0.149261 -0.157134 1.278729
v -0.310534 -0.371043 1.996951
v -0.412731 -0.230526 1.528111
v -0.499857 0.235553 1.686793
v -0.397659 0.095036 2.155632
v -0.789695 -0.484588 2.067367
v -0.891893 -0.344071 1.598528
v -0.979018 0.122008 1.757209
v -0.876821 -0.018509 2.226049
v -1.268857 -0.598133 2.137784
v -1.371054 -0.457616 1.668944
v -1.458180 0.008463 1.827626
v -1.355983 -0.132055 2.296465
v -1.748019 -0.711679 2.208200
v -1.850216 -0.571161 1.739361
v -1.937342 -0.105083 1.898042
v -1.835144 -0.245600 2.366882
v -2.227180 -0.825224 2.278617
v -2.329378 -0.684706 1.809777
v -2.416503 -0.218628 1.968459
v -2.314306 -0.359145 2.437298
v -2.741934 -0.260559 2.648534
v -2.902384 -0.052746 2.223011
v -2.474499 -0.181630 1.998727
v -2.314049 -0.389443 2.424250
v -2.549146 0.153818 2.778210
v -2.709596 0.361631 2.352687
v -2.281711 0.232746 2.128403
v -2.121261 0.024933 2.553926
v -2.356359 0.568194 2.907886
v -2.516809 0.776007 2.482363
v -2.088924 0.647123 2.258080
v -1.928474 0.439310 2.683602
v -2.270062 0.603423 2.976222
v -1.790260 0.694314 3.083596
v -1.669128 0.621449 2.603995
v -2.148929 0.530558 2.496620
v -2.209803 0.193824 3.053671
v -1.730001 0.284715 3.161046
v -1.608868 0.211850 2.681444
v -2.088670 0.120959 2.574069
v -2.149544 -0.215774 3.131120
v -1.669742 -0.124884 3.238495
v -1.548609 -0.197749 2.758893
v -2.028411 -0.288639 2.651519
v -1.331819 -0.407710 3.352439
v -1.672783 -0.063707 3.228324
v -1.565843 -0.132195 2.744719
v -1.224879 -0.476198 2.868835
v -0.991832 -0.061302 3.378562
v -1.332797 0.282701 3.254447
v -1.225857 0.214213 2.770842
v -0.884892 -0.129790 2.894958
v -0.651846 0.285106 3.404685
v -0.992811 0.629109 3.280570
v -0.885871 0.560621 2.796966
v -0.544906 0.216618 2.921081
v -0.751771 0.518925 3.562638
v -0.871804 0.369405 3.100863
v -1.004851 0.837006 2.984041
v -0.884818 0.986526 3.445816
v -1.201210 0.427619 3.709028
v -1.321242 0.278099 3.247253
v -1.454289 0.745700 3.130431
v -1.334257 0.895220 3.592206
v -1.650648 0.336312 3.855419
v -1.770681 0.186793 3.393644
v -1.903728 0.654394 3.276822
v -1.783695 0.803914 3.738596
v -2.100087 0.245006 4.001809
v -2.220119 0.095487 3.540034
v -2.353167 0.563088 3.423212
v -2.233134 0.712608 3.884987
v -2.151518 0.242395 4.085383
v -2.534494 0.118353 4.381934
v -2.701542 0.589249 4.363170
v -2.318566 0.713291 4.066619
v -1.901983 0.345476 4.450759
v -2.284959 0.221434 4.747310
v -2.452007 0.692330 4.728545
v -2.069031 0.816372 4.431994
vn -0.6801 0.0789 -0.7289
vn 0.5493 0.2269 0.8043
vn -0.0538 -0.9969 -0.0577
vn -0.7312 -0.0000 0.6822
vn 0.0538 0.9969 0.0577
vn 0.7312 -0.0000 -0.6822
vn -0.1116 -0.9880 0.1069
vn -0.4578 -0.1864 0.8693
vn 0.1559 0.9874 0.0285
vn 0.8250 0.0580 -0.5622
vn 0.1360 -0.5340 -0.8345
vn 0.0142 0.6067 -0.7948
vn -0.0342 0.6331 0.7733
vn 0.5122 -0.5316 0.6746
vn 0.1181 -0.6783 -0.7252
vn -0.3845 0.6421 -0.6632
vn -0.1181 0.6783 0.7252
vn 0.3845 -0.6421 0.6632
vn -0.1092 -0.6474 -0.7543
vn -0.4750 0.4806 -0.7372
vn -0.4125 0.1843 0.8921
vn 0.0483 -0.4479 0.8928
vn -0.3175 -0.5659 0.7609
vn -0.6490 0.5475 0.5283
vn -0.1382 0.1009 -0.9853
vn 0.2938 -0.5387 -0.7896
vn -0.0933 -0.5981 0.7960
vn -0.5412 0.7015 0.4636
vn 0.0933 0.5981 -0.7960
vn 0.5412 -0.7015 -0.4636
vn -0.0198 -0.1780 0.9838
vn -0.1105 0.5652 0.8175
vn 0.2868 0.5293 -0.7985
vn 0.6931 -0.5322 -0.4862
vn 0.3438 -0.6933 -0.6334
vn 0.2568 0.0428 -0.9655
vn -0.0168 0.8973 0.4411
vn 0.3426 -0.1065 0.9334
vn 0.1743 -0.9322 -0.3174
vn -0.2044 0.2810 -0.9377
vn -0.1743 0.9322 0.3174
vn 0.2044 -0.2810 0.9377
vn -0.0050 -0.9521 -0.3057
vn -0.2018 0.2452 -0.9482
vn -0.5564 0.7327 0.3918
vn 0.1921 -0.2422 0.9510
vn -0.9221 0.1007 0.3736
vn -0.3542 0.4210 -0.8350
vn 0.5929 -0.6455 -0.4815
vn 0.3551 -0.4307 0.8297
vn -0.8558 0.2578 0.4486
vn -0.3209 0.4156 -0.8510
vn 0.8558 -0.2578 -0.4486
vn 0.3209 -0.4156 0.8510
vn -0.8618 0.3658 0.3515
vn -0.3104 0.5975 -0.7393
vn 0.9473 -0.2437 -0.2081
vn 0.6490 -0.0004 0.7608
vn -0.1292 0.2367 0.9630
vn 0.8846 0.3926 0.2517
vn -0.0161 -0.0513 -0.9986
vn -0.7912 0.3653 -0.4904
vn -0.2423 0.1457 0.9592
vn 0.9596 0.1818 0.2147
vn 0.2423 -0.1457 -0.9592
vn -0.9596 -0.1818 -0.2147
vn -0.2484 0.1444 0.9578
vn 0.8750 -0.3997 0.2732
vn 0.2485 -0.1447 -0.9578
vn -0.9101 -0.3782 -0.1693
vn -0.2096 0.1325 0.9688
vn -0.9249 0.2842 -0.2527
vn 0.2093 -0.1326 -0.9688
vn 0.5374 -0.8094 0.2367
vn -0.2139 0.1370 0.9672
vn -0.6819 0.6880 -0.2482
vn 0.2139 -0.1370 -0.9672
vn 0.6819 -0.6880 0.2482
vn -0.1612 0.5671 0.8077
vn -0.4830 0.8716 0.0841
vn 0.4059 -0.1196 -0.9061
vn 0.7924 -0.5991 0.1144
vn 0.4819 -0.8590 -0.1730
vn 0.1362 -0.5012 -0.8545
vn -0.0876 0.9846 -0.1512
vn 0.3235 0.4502 0.8322
vn 0.2661 -0.9352 0.2336
vn -0.2401 -0.2990 -0.9235
vn -0.2661 0.9352 -0.2336
vn 0.2401 0.2990 0.9235
vn 0.2700 -0.9249 0.2676
vn -0.3801 -0.3065 -0.8727
vn -0.2772 0.9247 -0.2608
vn -0.0824 0.1761 0.9809
vn 0.3583 -0.9335 0.0124
vn -0.8471 -0.2630 0.4618
vn -0.3599 0.9327 -0.0228
vn 0.5192 0.1038 -0.8483
vn 0.3341 -0.9418 0.0375
vn -0.7660 -0.2481 0.5931
vn -0.3341 0.9418 -0.0375
vn 0.7660 0.2481 -0.5931
s 0
f 1//1 2//1 3//1 4//1
f 40//2 39//2 38//2 37//2
f 41//3 42//3 2//3 1//3
f 42//4 43//4 3//4 2//4
f 43//5 44//5 4//5 3//5
f 44//6 41//6 1//6 4//6
f 5//7 6//7 42//7 41//7
f 6//8 7//8 43//8 42//8
f 7//9 8//9 44//9 43//9
f 8//10 5//10 41//10 44//10
f 45//11 46//11 6//11 5//11
f 46//12 47//12 7//12 6//12
f 47//13 48//13 8//13 7//13
f 48//14 45//14 5//14 8//14
f 49//15 50//15 46//15 45//15
f 50//16 51//16 47//16 46//16
f 51//17 52//17 48//17 47//17
f 52//18 49//18 45//18 48//18
f 53//15 54//15 50//15 49//15
f 54//16 55//16 51//16 50//16
f 55//17 56//17 52//17 51//17
f 56//18 53//18 49//18 52//18
f 57//15 58//15 54//15 53//15
f 58//16 59//16 55//16 54//16
f 59//17 60//17 56//17 55//17
f 60//18 57//18 53//18 56//18
f 9//19 10//19 58//19 57//19
f 10//20 11//20 59//20 58//20
f 11//21 12//21 60//21 59//21
f 12//22 9//22 57//22 60//22
f 61//23 62//23 10//23 9//23
f 62//24 63//24 11//24 10//24
f 63//25 64//25 12//25 11//25
f 64//26 61//26 9//26 12//26
f 65//27 66//27 62//27 61//27
f 66//28 67//28 63//28 62//28
f 67//29 68//29 64//29 63//29
f 68//30 65//30 61//30 64//30
f 69//27 70//27 66//27 65//27
f 70//28 71//28 67//28 66//28
f 71//29 72//29 68//29 67//29
f 72//30 69//30 65//30 68//30
f 73//27 74//27 70//27 69//27
f 74//28 75//28 71//28 70//28
f 75//29 76//29 72//29 71//29
f 76//30 73//30 69//30 72//30
f 13//31 14//31 74//31 73//31
f 14//32 15//32 75//32 74//32
f 15//33 16//33 76//33 75//33
f 16//34 13//34 73//34 76//34
f 77//35 78//35 14//35 13//35
f 78//36 79//36 15//36 14//36
f 79//37 80//37 16//37 15//37
f 80//38 77//38 13//38 16//38
f 81//39 82//39 78//39 77//39
f 82//40 83//40 79//40 78//40
f 83//41 84//41 80//41 79//41
f 84//42 81//42 77//42 80//42
f 85//39 86//39 82//39 81//39
f 86//40 87//40 83//40 82//40
f 87//41 88//41 84//41 83//41
f 88//42 85//42 81//42 84//42
f 89//39 90//39 86//39 85//39
f 90//40 91//40 87//40 86//40
f 91//41 92//41 88//41 87//41
f 92//42 89//42 85//42 88//42
f 93//39 94//39 90//39 89//39
f 94//40 95//40 91//40 90//40
f 95//41 96//41 92//41 91//41
f 96//42 93//42 89//42 92//42
f 17//43 18//43 94//43 93//43
f 18//44 19//44 95//44 94//44
f 19//45 20//45 96//45 95//45
f 20//46 17//46 93//46 96//46
f 97//47 98//47 18//47 17//47
f 98//48 99//48 19//48 18//48
f 99//49 100//49 20//49 19//49
f 100//50 97//50 17//50 20//50
f 101//51 102//51 98//51 97//51
f 102//52 103//52 99//52 98//52
f 103//53 104//53 100//53 99//53
f 104//54 101//54 97//54 100//54
f 105//51 106//51 102//51 101//51
f 106//52 107//52 103//52 102//52
f 107//53 108//53 104//53 103//53
f 108//54 105//54 101//54 104//54
f 21//55 22//55 106//55 105//55
f 22//56 23//56 107//56 106//56
f 23//57 24//57 108//57 107//57
f 24//58 21//58 105//58 108//58
f 109//59 110//59 22//59 21//59
f 110//60 111//60 23//60 22//60
f 111//61 112//61 24//61 23//61
f 112//62 109//62 21//62 24//62
f 113//63 114//63 110//63 109//63
f 114//64 115//64 111//64 110//64
f 115//65 116//65 112//65 111//65
f 116//66 113//66 109//66 112//66
f 117//63 118//63 114//63 113//63
f 118//64 119//64 115//64 114//64
f 119//65 120//65 116//65 115//65
f 120//66 117//66 113//66 116//66
f 25//67 26//67 118//67 117//67
f 26//68 27//68 119//68 118//68
f 27//69 28//69 120//69 119//69
f 28//70 25//70 117//70 120//70
f 121//71 122//71 26//71 25//71
f 122//72 123//72 27//72 26//72
f 123//73 124//73 28//73 27//73
f 124//74 121//74 25//74 28//74
f 125//75 126//75 122//75 121//75
f 126//76 127//76 123//76 122//76
f 127//77 128//77 124//77 123//77
f 128//78 125//78 121//78 124//78
f 129//75 130//75 126//75 125//75
f 130//76 131//76 127//76 126//76
f 131//77 132//77 128//77 127//77
f 132//78 129//78 125//78 128//78
f 29//79 30//79 130//79 129//79
f 30//80 31//80 131//80 130//80
f 31//81 32//81 132//81 131//81
f 32//82 29//82 129//82 132//82
f 133//83 134//83 30//83 29//83
f 134//84 135//84 31//84 30//84
f 135//85 136//85 32//85 31//85
f 136//86 133//86 29//86 32//86
f 137//87 138//87 134//87 133//87
f 138//88 139//88 135//88 134//88
f 139//89 140//89 136//89 135//89
f 140//90 137//90 133//90 136//90
f 141//87 142//87 138//87 137//87
f 142//88 143//88 139//88 138//88
f 143//89 144//89 140//89 139//89
f 144//90 141//90 137//90 140//90
f 145//87 146//87 142//87 141//87
f 146//88 147//88 143//88 142//88
f 147//89 148//89 144//89 143//89
f 148//90 145//90 141//90 144//90
f 33//91 34//91 146//91 145//91
f 34//92 35//92 147//92 146//92
f 35//93 36//93 148//93 147//93
f 36//94 33//94 145//94 148//94
f 149//95 150//95 34//95 33//95
f 150//96 151//96 35//96 34//96
f 151//97 152//97 36//97 35//97
f 152//98 149//98 33//98 36//98
f 153//99 154//99 150//99 149//99
f 154//100 155//100 151//100 150//100
f 155//101 156//101 152//101 151//101
f 156//102 153//102 149//102 152//102
f 37//99 38//99 154//99 153//99
f 38//100 39//100 155//100 154//100
f 39//101 40//101 156//101 155//101
f 40//102 37//102 153//102 156//102
